# xmcd
#
# Track frame offsets: 
#        182
#        13580
#        29285
#        35630
#        54332
#        63017
#        87615
#        112420
#        130645
#        147465
#        178517
#        182300
#        203395
#        222540
#        237410
#        267372
#
# Disc length: 3803 seconds
#
# Revision: 0
# Processed by: cddbd v1.5.1PL2 Copyright (c) Steve Scherf et al.
# Submitted via: ExactAudioCopy v0.95b3
#
DISCID=e40ed910
DTITLE=Rockin' Tabby Thomas - Swamp Blues Man
DYEAR=1995
DGENRE=Blues
TTITLE0=Rock This House
TTITLE1=Hey Little School Girl
TTITLE2=Hey Bartender #1
TTITLE3=Going To New Orleans
TTITLE4=Hey Bartender #2 (Instrumental)
TTITLE5=Hoo Do Man
TTITLE6=Drinking Blues
TTITLE7=Lilie Brown
TTITLE8=Swamp Man Blues
TTITLE9=Gamblin' Woman
TTITLE10=Dirty Draws
TTITLE11=Kiss Tomorrow Good-bye
TTITLE12=I's I'm Your Man
TTITLE13=Give Me A Chance
TTITLE14=On Thin Ice
TTITLE15=My Last Letter
EXTD=
EXTT0=
EXTT1=
EXTT2=
EXTT3=
EXTT4=
EXTT5=
EXTT6=
EXTT7=
EXTT8=
EXTT9=
EXTT10=
EXTT11=
EXTT12=
EXTT13=
EXTT14=
EXTT15=
PLAYORDER=
